{
  "asset": {
    "copyright": "",
    "generator": "VRF - https://vrf.steamdb.info/",
    "version": "2.0"
  },
  "accessors": [
    {
      "name": "Animation.Input",
      "bufferView": 0,
      "componentType": 5126,
      "count": 37,
      "max": [
        1.5
      ],
      "min": [
        0
      ],
      "type": "SCALAR"
    },
    {
      "name": "Animation.Output",
      "bufferView": 1,
      "componentType": 5126,
      "count": 37,
      "max": [
        0.7067183256149292,
        0.7044740915298462,
        0.7046701312065125,
        0.7068982720375061
      ],
      "min": [
        0.020543385297060013,
        -0.7067183256149292,
        -0.7068982720375061,
        0.020543385297060013
      ],
      "type": "VEC4"
    },
    {
      "name": "Animation.Input",
      "bufferView": 2,
      "componentType": 5126,
      "count": 37,
      "max": [
        1.5
      ],
      "min": [
        0
      ],
      "type": "SCALAR"
    },
    {
      "name": "Animation.Output",
      "bufferView": 3,
      "componentType": 5126,
      "count": 37,
      "max": [
        0,
        0,
        40
      ],
      "min": [
        0,
        0,
        0
      ],
      "type": "VEC3"
    },
    {
      "name": "Animation.Input",
      "bufferView": 4,
      "componentType": 5126,
      "count": 1,
      "max": [
        0
      ],
      "min": [
        0
      ],
      "type": "SCALAR"
    },
    {
      "name": "Animation.Output",
      "bufferView": 5,
      "componentType": 5126,
      "count": 1,
      "max": [
        1,
        1,
        1
      ],
      "min": [
        1,
        1,
        1
      ],
      "type": "VEC3"
    },
    {
      "bufferView": 6,
      "componentType": 5126,
      "count": 272,
      "max": [
        27.904434204101562,
        28.10832405090332,
        66.72301483154297
      ],
      "min": [
        -27.895734786987305,
        -26.412031173706055,
        27.39962387084961
      ],
      "type": "VEC3"
    },
    {
      "bufferView": 7,
      "componentType": 5126,
      "count": 272,
      "max": [
        0,
        0
      ],
      "min": [
        0,
        0
      ],
      "type": "VEC2"
    },
    {
      "bufferView": 8,
      "componentType": 5126,
      "count": 272,
      "max": [
        1,
        0.9773415327072144,
        0.9773415327072144
      ],
      "min": [
        -0.9998700022697449,
        -0.9783496260643005,
        -0.8950157761573792
      ],
      "type": "VEC3"
    },
    {
      "bufferView": 9,
      "componentType": 5126,
      "count": 272,
      "max": [
        1,
        1,
        0.02280392125248909,
        -1
      ],
      "min": [
        -1,
        -0.9998700022697449,
        -0.02209177426993847,
        -1
      ],
      "type": "VEC4"
    },
    {
      "bufferView": 10,
      "componentType": 5123,
      "count": 272,
      "type": "VEC4"
    },
    {
      "bufferView": 11,
      "componentType": 5126,
      "count": 272,
      "max": [
        1,
        0,
        0,
        0
      ],
      "min": [
        1,
        0,
        0,
        0
      ],
      "type": "VEC4"
    },
    {
      "bufferView": 12,
      "componentType": 5125,
      "count": 366,
      "type": "SCALAR"
    },
    {
      "name": "Bind Matrices",
      "bufferView": 13,
      "componentType": 5126,
      "count": 1,
      "max": [
        1.7881387748275301E-07,
        -2.384184938364342E-07,
        0.9999998807907104,
        0,
        0.9999998807907104,
        5.9604616353681195E-08,
        -5.9604587931971764E-08,
        0,
        5.960470161880949E-08,
        0.9999998807907104,
        3.5762778338721546E-07,
        0,
        -0,
        -0,
        -0,
        1
      ],
      "min": [
        1.7881387748275301E-07,
        -2.384184938364342E-07,
        0.9999998807907104,
        0,
        0.9999998807907104,
        5.9604616353681195E-08,
        -5.9604587931971764E-08,
        0,
        5.960470161880949E-08,
        0.9999998807907104,
        3.5762778338721546E-07,
        0,
        -0,
        -0,
        -0,
        1
      ],
      "type": "MAT4"
    }
  ],
  "animations": [
    {
      "name": "gem_5",
      "channels": [
        {
          "sampler": 0,
          "target": {
            "node": 1,
            "path": "rotation"
          }
        },
        {
          "sampler": 1,
          "target": {
            "node": 1,
            "path": "translation"
          }
        },
        {
          "sampler": 2,
          "target": {
            "node": 1,
            "path": "scale"
          }
        }
      ],
      "samplers": [
        {
          "input": 0,
          "output": 1
        },
        {
          "input": 2,
          "output": 3
        },
        {
          "input": 4,
          "output": 5
        }
      ]
    }
  ],
  "bufferViews": [
    {
      "buffer": 0,
      "byteLength": 148,
      "byteOffset": 22084
    },
    {
      "buffer": 0,
      "byteLength": 592,
      "byteOffset": 21048
    },
    {
      "buffer": 0,
      "byteLength": 148,
      "byteOffset": 22232
    },
    {
      "buffer": 0,
      "byteLength": 444,
      "byteOffset": 21640
    },
    {
      "buffer": 0,
      "byteLength": 4,
      "byteOffset": 22456
    },
    {
      "buffer": 0,
      "byteLength": 12,
      "byteOffset": 22444
    },
    {
      "buffer": 0,
      "byteLength": 3264,
      "byteOffset": 8704,
      "target": 34962
    },
    {
      "buffer": 0,
      "byteLength": 2176,
      "byteOffset": 15232,
      "target": 34962
    },
    {
      "buffer": 0,
      "byteLength": 3264,
      "byteOffset": 11968,
      "target": 34962
    },
    {
      "buffer": 0,
      "byteLength": 4352,
      "target": 34962
    },
    {
      "buffer": 0,
      "byteLength": 2176,
      "byteOffset": 17408,
      "target": 34962
    },
    {
      "buffer": 0,
      "byteLength": 4352,
      "byteOffset": 4352,
      "target": 34962
    },
    {
      "buffer": 0,
      "byteLength": 1464,
      "byteOffset": 19584,
      "target": 34963
    },
    {
      "buffer": 0,
      "byteLength": 64,
      "byteOffset": 22380
    }
  ],
  "buffers": [
    {
      "byteLength": 22460,
      "uri": "gem_5.bin"
    }
  ],
  "images": [
    {
      "name": "greevil_nose_color_psd_806be718.vtex",
      "uri": "greevil_nose_color_psd_806be718.png"
    },
    {
      "name": "greevil_nose_normal_psd_e2e95bfa.vtex",
      "uri": "greevil_nose_normal_psd_e2e95bfa.png"
    },
    {
      "name": "greevil_nose_detailmask_tga_7fd6ad91_orm_1824991372.png",
      "uri": "greevil_nose_detailmask_tga_7fd6ad91_orm_1824991372.png"
    }
  ],
  "materials": [
    {
      "extras": {
        "baseColorTexture": {
          "index": 0
        }
      },
      "name": "greevil_nose_green",
      "emissiveTexture": {
        "index": 2
      },
      "normalTexture": {
        "index": 1
      },
      "pbrMetallicRoughness": {
        "baseColorTexture": {
          "index": 0
        },
        "metallicRoughnessTexture": {
          "index": 2
        }
      }
    }
  ],
  "meshes": [
    {
      "name": "gem_5",
      "primitives": [
        {
          "attributes": {
            "POSITION": 6,
            "TEXCOORD_0": 7,
            "NORMAL": 8,
            "TANGENT": 9,
            "JOINTS_0": 10,
            "WEIGHTS_0": 11
          },
          "indices": 12,
          "material": 0
        }
      ]
    }
  ],
  "nodes": [
    {
      "name": "gem_5.vmdl_c",
      "children": [
        1
      ],
      "matrix": [
        3.027916E-09,
        0,
        0.025399996,
        0,
        0.025399996,
        3.027916E-09,
        0,
        0,
        0,
        0.025399996,
        3.027916E-09,
        0,
        0,
        0,
        0,
        1
      ]
    },
    {
      "name": "Bone",
      "rotation": [
        0.49999997,
        0.4999999,
        0.50000006,
        0.5000002
      ]
    },
    {
      "name": "gem_5",
      "mesh": 0,
      "skin": 0
    }
  ],
  "samplers": [
    {
      "magFilter": 9729,
      "minFilter": 9987
    }
  ],
  "scenes": [
    {
      "name": "gem_5.vmdl_c",
      "nodes": [
        0,
        2
      ]
    }
  ],
  "skins": [
    {
      "inverseBindMatrices": 13,
      "joints": [
        1
      ]
    }
  ],
  "textures": [
    {
      "name": "greevil_nose_color_psd_806be718.vtex",
      "sampler": 0,
      "source": 0
    },
    {
      "name": "greevil_nose_normal_psd_e2e95bfa.vtex",
      "sampler": 0,
      "source": 1
    },
    {
      "name": "greevil_nose_detailmask_tga_7fd6ad91_orm_1824991372.png",
      "sampler": 0,
      "source": 2
    }
  ]
}